<?xml version="1.0" encoding="utf-8"?>
<!-- Svg Vector Icons : http://www.onlinewebfonts.com/icon -->
<!DOCTYPE svg PUBLIC "-//W3C//DTD SVG 1.1//EN" "http://www.w3.org/Graphics/SVG/1.1/DTD/svg11.dtd">
<svg width="50" height="50" version="1.1" xmlns="http://www.w3.org/2000/svg" xmlns:xlink="http://www.w3.org/1999/xlink" x="0px" y="0px" viewBox="0 0 1000 1000" enable-background="new 0 0 1000 1000" xml:space="preserve">
<metadata> Svg Vector Icons : http://www.onlinewebfonts.com/icon </metadata>
<g><g><g><path d="M541.2,31.1v61.5c2.2,0,4.3-0.5,6.6,0l401.1,80.2c18.2,3.6,30.1,21.4,26.4,39.6c-3.2,16-17.3,27.1-33,27.1c-2.1,0-4.4-0.3-6.7-0.7L541.2,160v37.2c1.8,0,3.5-0.4,5.4-0.1l401.1,65.3c18.4,3,30.8,20.3,27.8,38.6c-2.7,16.5-17,28.3-33.2,28.3c-1.8,0-3.6-0.1-5.5-0.4l-395.7-64.5v29.7c1.6-0.1,3.2-0.5,4.9-0.3l401.1,58.4c18.3,2.6,31.1,19.8,28.5,38.2c-2.5,16.7-16.8,28.8-33.3,28.8c-1.6,0-3.2-0.1-4.9-0.3l-396.3-57.6V395c1.3,0,2.6-0.5,4-0.4l401.2,47.1c18.5,2.2,31.7,18.9,29.5,37.4c-2,17.1-16.6,29.7-33.5,29.7c-1.3,0-2.6-0.1-3.9-0.2l-397.3-46.6v466.8H990v-808L541.2,31.1z M915.2,614.6c-15.4,0-28-12.6-28-28c0-15.5,12.6-28.1,28-28.1c15.5,0,28.1,12.6,28.1,28.1C943.2,602,930.7,614.6,915.2,614.6z" fill="#23D997"/><path d="M159.6,506c8.2-0.4,16.4-0.7,24.5-0.7c105.9,0,219.7,36.1,219.7,115.3v278.7c0,10.7-2.2,20.4-6,29.5h120.9V31.1L159.6,210.6V506z" fill="#23D997"/><path d="M184.1,794.7C88,794.7,10,763.6,10,725.1v69.7c0,38.5,78,69.6,174.1,69.6s174.1-31.2,174.1-69.6v-69.7C358.3,763.6,280.3,794.7,184.1,794.7z" fill="#23D997"/><path d="M184.1,899.3C88,899.3,10,868.1,10,829.6v69.7c0,38.5,78,69.7,174.1,69.7s174.1-31.2,174.1-69.7v-69.7C358.3,868.1,280.3,899.3,184.1,899.3z" fill="#23D997"/><path d="M184.1,550.9C88,550.9,10,582.1,10,620.6v69.7c0,38.5,78,69.7,174.1,69.7s174.1-31.2,174.1-69.7v-69.7C358.3,582.1,280.3,550.9,184.1,550.9z M184.1,672.8c-95.7,0-156.8-31-156.8-52.3c0-21.3,61-52.2,156.8-52.2c95.7,0,156.7,30.9,156.7,52.2C340.9,641.9,279.8,672.8,184.1,672.8z" fill="#23D997"/></g></g><g></g><g></g><g></g><g></g><g></g><g></g><g></g><g></g><g></g><g></g><g></g><g></g><g></g><g></g><g></g></g>
</svg>